<svg width="23" height="24" viewBox="0 0 23 24" fill="none" xmlns="http://www.w3.org/2000/svg">
<g clip-path="url(#clip0_601_122)">
<path d="M6.03883 18.9329L1.95508 22.2871V4.55794C1.95508 4.30378 2.05166 4.06002 2.22356 3.8803C2.39547 3.70058 2.62863 3.59961 2.87174 3.59961H19.3717C19.6149 3.59961 19.848 3.70058 20.0199 3.8803C20.1918 4.06002 20.2884 4.30378 20.2884 4.55794V17.9746C20.2884 18.2288 20.1918 18.4725 20.0199 18.6523C19.848 18.832 19.6149 18.9329 19.3717 18.9329H6.03883ZM5.40449 17.0163H18.4551V5.51628H3.78841V18.3436L5.40449 17.0163ZM10.2051 10.3079H12.0384V12.2246H10.2051V10.3079ZM6.53841 10.3079H8.37174V12.2246H6.53841V10.3079ZM13.8717 10.3079H15.7051V12.2246H13.8717V10.3079Z" fill="#4A5468"/>
</g>
<defs>
<clipPath id="clip0_601_122">
<rect width="22" height="23" fill="white" transform="translate(0.121094 0.724609)"/>
</clipPath>
</defs>
</svg>
