<svg width="25" height="22" viewBox="0 0 25 22" fill="none" xmlns="http://www.w3.org/2000/svg">
<path d="M12.3797 21.9799C12.2598 21.98 12.1419 21.9492 12.0373 21.8906C9.90775 20.6432 7.90907 19.1848 6.07148 17.5372C2.04269 13.9114 0 10.2979 0 6.79726C0.000414907 5.34835 0.46527 3.93773 1.32634 2.77245C2.1874 1.60716 3.39933 0.74858 4.78424 0.32272C6.16914 -0.10314 7.65409 -0.0738494 9.02113 0.406293C10.3882 0.886435 11.5653 1.79214 12.3797 2.99048C13.1942 1.79214 14.3713 0.886435 15.7383 0.406293C17.1054 -0.0738494 18.5903 -0.10314 19.9752 0.32272C21.3601 0.74858 22.5721 1.60716 23.4331 2.77245C24.2942 3.93773 24.7591 5.34835 24.7595 6.79726C24.7595 10.2979 22.7168 13.9114 18.688 17.5372C16.8504 19.1848 14.8517 20.6432 12.7221 21.8906C12.6175 21.9492 12.4996 21.98 12.3797 21.9799Z" fill="#FF0000"/>
</svg>
