<svg width="25" height="23" viewBox="0 0 25 23" fill="none" xmlns="http://www.w3.org/2000/svg">
<path d="M12.5008 22.6811C12.3809 22.6811 12.263 22.6504 12.1584 22.5918C10.0288 21.3444 8.03016 19.8859 6.19258 18.2384C2.16378 14.6126 0.121094 10.9991 0.121094 7.49843C0.121509 6.04952 0.586364 4.63891 1.44743 3.47362C2.3085 2.30833 3.52042 1.44975 4.90533 1.02389C6.29024 0.598032 7.77519 0.627322 9.14222 1.10746C10.5093 1.58761 11.6864 2.49331 12.5008 3.69165C13.3153 2.49331 14.4924 1.58761 15.8594 1.10746C17.2265 0.627322 18.7114 0.598032 20.0963 1.02389C21.4812 1.44975 22.6932 2.30833 23.5542 3.47362C24.4153 4.63891 24.8801 6.04952 24.8806 7.49843C24.8806 10.9991 22.8379 14.6126 18.8091 18.2384C16.9715 19.8859 14.9728 21.3444 12.8432 22.5918C12.7386 22.6504 12.6207 22.6811 12.5008 22.6811ZM6.89491 2.12609C5.47057 2.1277 4.10504 2.69424 3.09788 3.70139C2.09072 4.70855 1.52419 6.07409 1.52257 7.49843C1.52257 14.1935 10.6072 20.0249 12.5008 21.1672C14.3944 20.0249 23.4791 14.1935 23.4791 7.49843C23.4789 6.2567 23.0486 5.05338 22.2614 4.09305C21.4742 3.13273 20.3787 2.47467 19.1612 2.23077C17.9436 1.98686 16.6792 2.17217 15.5829 2.75518C14.4865 3.33818 13.6259 4.28291 13.1474 5.42873C13.0941 5.55626 13.0043 5.66519 12.8892 5.74181C12.7742 5.81842 12.6391 5.8593 12.5008 5.8593C12.3626 5.8593 12.2275 5.81842 12.1124 5.74181C11.9974 5.66519 11.9076 5.55626 11.8543 5.42873C11.447 4.44945 10.7584 3.61296 9.87559 3.02508C8.99282 2.43721 7.95552 2.12435 6.89491 2.12609Z" fill="#4A5468"/>
</svg>