<svg width="29" height="31" viewBox="0 0 29 31" fill="none" xmlns="http://www.w3.org/2000/svg">
<path d="M6.45975 25.1154L0 30.5V2.03846C0 1.63044 0.152767 1.23912 0.424695 0.950605C0.696623 0.662087 1.06544 0.5 1.45 0.5H27.55C27.9346 0.5 28.3034 0.662087 28.5753 0.950605C28.8472 1.23912 29 1.63044 29 2.03846V23.5769C29 23.9849 28.8472 24.3763 28.5753 24.6648C28.3034 24.9533 27.9346 25.1154 27.55 25.1154H6.45975ZM5.45635 22.0385H26.1V3.57692H2.9V24.1692L5.45635 22.0385Z" fill="#27AABF"/>
<path d="M13.4618 15.5C14.5839 15.5 15.706 15.5 16.8281 15.5C16.8281 14.7195 16.9884 14.1341 16.9884 13.3537C17.1487 11.5976 17.309 10.0366 17.4693 8.28049C17.6296 7.30488 17.1487 6.52439 16.3472 5.93902C15.5457 5.35366 14.5839 5.35366 13.7824 5.93902C12.9809 6.52439 12.5 7.30488 12.5 8.28049C12.9809 10.622 13.1412 12.9634 13.4618 15.5Z" fill="#27AABF"/>
<path d="M13.5 18C13.5 18.8077 14.2 19.5 15 19.5C15.8 19.5 16.5 18.8077 16.5 18C16.5 17.1923 15.8 16.5 15 16.5C14.2 16.6154 13.5 17.1923 13.5 18Z" fill="#27AABF"/>
</svg>
