<svg width="17" height="17" viewBox="0 0 17 17" fill="none" xmlns="http://www.w3.org/2000/svg">
<path fill-rule="evenodd" clip-rule="evenodd" d="M3.33573 10.3546C1.83409 9.48872 1.33686 8.55237 1.37664 7.84759C1.41642 7.13274 2.00315 6.24674 3.58435 5.54196L11.0925 2.21944C12.3157 1.67575 13.2903 1.42404 14.0262 1.39384C14.7621 1.36363 15.1499 1.55493 15.3488 1.76636C15.5477 1.98787 15.6869 2.40066 15.5776 3.13565C15.4682 3.87063 15.1201 4.82711 14.4638 6.0051L13.3897 7.92814L8.85499 7.69657C8.4771 7.67643 8.14893 7.96841 8.13898 8.351C8.11909 8.7336 8.40749 9.06585 8.78538 9.07592L13.4196 9.31755C13.4395 9.31755 13.4594 9.31755 13.4693 9.31755L14.2052 11.0191C14.7422 12.2575 14.9908 13.2442 15.0207 13.9892C15.0505 14.7343 14.8715 15.1269 14.6527 15.3182C14.4339 15.5196 14.0262 15.6606 13.3002 15.5498C12.5743 15.4391 11.6295 15.0867 10.466 14.4222L3.33573 10.3546ZM3.03739 4.26329C1.24736 5.05868 0.0838395 6.28701 0.00428259 7.76704C-0.0752744 9.24708 0.958966 10.5862 2.6595 11.5628L9.78979 15.6606C11.0329 16.3754 12.1467 16.8083 13.1013 16.9493C14.056 17.0902 14.9411 16.9493 15.5776 16.3754C16.214 15.7914 16.4427 14.9155 16.403 13.949C16.3632 12.9723 16.045 11.8044 15.4781 10.4855L14.6428 8.5423L15.677 6.69981C16.3831 5.44128 16.8107 4.31363 16.9499 3.34708C17.0891 2.38053 16.9499 1.48445 16.3831 0.840084C15.8063 0.195716 14.9411 -0.0358539 13.9864 0.00441908C13.0218 0.0446921 11.8682 0.366876 10.5655 0.940767L3.03739 4.26329Z" fill="#ABABAB"/>
</svg>
