<svg width="28" height="35" viewBox="0 0 28 35" fill="none" xmlns="http://www.w3.org/2000/svg">
<path d="M2.33318 33.2515C2.32968 33.7113 2.50872 34.1539 2.83103 34.4819C3.15334 34.81 3.59261 34.9968 4.05249 35.0015H23.9474C24.4072 34.9968 24.8465 34.81 25.1688 34.4819C25.4911 34.1539 25.6702 33.7113 25.6667 33.2515V9.91797H2.33318V33.2515ZM4.66653 12.2513H23.3333V32.6681H4.66653V12.2513Z" fill="#27AABF"/>
<path d="M9.91648 14.582H7.58313V29.1655H9.91648V14.582Z" fill="#27AABF"/>
<path d="M15.1666 14.582H12.8333V29.1655H15.1666V14.582Z" fill="#27AABF"/>
<path d="M20.4166 14.582H18.0833V29.1655H20.4166V14.582Z" fill="#27AABF"/>
<path d="M19.2501 5.25004V1.75001C19.2501 0.768693 18.5583 0 17.6751 0H10.3251C9.4419 0 8.75006 0.768693 8.75006 1.75001V5.25004H0V7.58338H28.0002V5.25004H19.2501ZM11.0834 2.33335H16.9168V5.25004H11.0834V2.33335Z" fill="#27AABF"/>
</svg>
