<svg width="27" height="27" viewBox="0 0 27 27" fill="none" xmlns="http://www.w3.org/2000/svg">
<circle cx="13.5184" cy="13.0184" r="13.0184" fill="#A0ABC0"/>
<path fill-rule="evenodd" clip-rule="evenodd" d="M21.105 23.6634C18.9501 25.1684 16.3285 26.0512 13.5007 26.0512C10.673 26.0512 8.05136 25.1684 5.89648 23.6634C6.06445 22.6958 6.52696 21.7957 7.23079 21.0919C8.13037 20.1923 9.35046 19.6869 10.6227 19.6869H16.3788C17.651 19.6869 18.8711 20.1923 19.7707 21.0919C20.4745 21.7957 20.937 22.6958 21.105 23.6634ZM13.5007 17.7682C12.7448 17.7682 11.9963 17.6193 11.2979 17.3301C10.5996 17.0408 9.96502 16.6168 9.43051 16.0823C8.896 15.5478 8.472 14.9132 8.18272 14.2148C7.89345 13.5165 7.74456 12.768 7.74456 12.012C7.74456 11.2561 7.89345 10.5076 8.18272 9.80924C8.472 9.11087 8.896 8.47632 9.43051 7.94181C9.96502 7.40729 10.5996 6.9833 11.2979 6.69402C11.9963 6.40475 12.7448 6.25586 13.5007 6.25586C15.0274 6.25586 16.4915 6.86231 17.571 7.94181C18.6505 9.0213 19.2569 10.4854 19.2569 12.012C19.2569 13.5387 18.6505 15.0028 17.571 16.0823C16.4915 17.1618 15.0274 17.7682 13.5007 17.7682Z" fill="#717D96"/>
</svg>
